<mxfile host="app.diagrams.net" agent="Mozilla/5.0 (Macintosh; Intel Mac OS X 10_15_7) AppleWebKit/605.1.15 (KHTML, like Gecko) Version/18.5 Safari/605.1.15" version="27.1.1">
  <diagram name="Page-1" id="Wx2aD-zi4ubrUOVjwPov">
    <mxGraphModel dx="798" dy="1710" grid="1" gridSize="10" guides="1" tooltips="1" connect="1" arrows="1" fold="1" page="1" pageScale="1" pageWidth="827" pageHeight="1169" math="0" shadow="0">
      <root>
        <mxCell id="0" />
        <mxCell id="1" parent="0" />
        <mxCell id="BSza7AXmkYihMMKh2WeY-4" style="edgeStyle=orthogonalEdgeStyle;rounded=0;orthogonalLoop=1;jettySize=auto;html=1;entryX=0.5;entryY=0;entryDx=0;entryDy=0;" edge="1" parent="1" source="BSza7AXmkYihMMKh2WeY-1" target="BSza7AXmkYihMMKh2WeY-3">
          <mxGeometry relative="1" as="geometry" />
        </mxCell>
        <mxCell id="BSza7AXmkYihMMKh2WeY-1" value="User logs in" style="rounded=0;whiteSpace=wrap;html=1;fillColor=#f5f5f5;fontColor=#333333;strokeColor=#666666;" vertex="1" parent="1">
          <mxGeometry x="320" y="40" width="120" height="60" as="geometry" />
        </mxCell>
        <mxCell id="BSza7AXmkYihMMKh2WeY-8" style="edgeStyle=orthogonalEdgeStyle;rounded=0;orthogonalLoop=1;jettySize=auto;html=1;entryX=0.5;entryY=0;entryDx=0;entryDy=0;" edge="1" parent="1" source="BSza7AXmkYihMMKh2WeY-2" target="BSza7AXmkYihMMKh2WeY-7">
          <mxGeometry relative="1" as="geometry" />
        </mxCell>
        <mxCell id="BSza7AXmkYihMMKh2WeY-2" value="Searches book" style="rounded=0;whiteSpace=wrap;html=1;fillColor=#dae8fc;strokeColor=#6c8ebf;" vertex="1" parent="1">
          <mxGeometry x="320" y="240" width="120" height="60" as="geometry" />
        </mxCell>
        <mxCell id="BSza7AXmkYihMMKh2WeY-5" style="edgeStyle=orthogonalEdgeStyle;rounded=0;orthogonalLoop=1;jettySize=auto;html=1;entryX=0.5;entryY=0;entryDx=0;entryDy=0;" edge="1" parent="1" source="BSza7AXmkYihMMKh2WeY-3" target="BSza7AXmkYihMMKh2WeY-2">
          <mxGeometry relative="1" as="geometry" />
        </mxCell>
        <mxCell id="BSza7AXmkYihMMKh2WeY-3" value="Goes to Dashboard" style="rounded=0;whiteSpace=wrap;html=1;fillColor=#f5f5f5;fontColor=#333333;strokeColor=#666666;" vertex="1" parent="1">
          <mxGeometry x="320" y="140" width="120" height="60" as="geometry" />
        </mxCell>
        <mxCell id="BSza7AXmkYihMMKh2WeY-11" style="edgeStyle=orthogonalEdgeStyle;rounded=0;orthogonalLoop=1;jettySize=auto;html=1;entryX=0.5;entryY=0;entryDx=0;entryDy=0;" edge="1" parent="1" source="BSza7AXmkYihMMKh2WeY-6" target="BSza7AXmkYihMMKh2WeY-10">
          <mxGeometry relative="1" as="geometry" />
        </mxCell>
        <mxCell id="BSza7AXmkYihMMKh2WeY-6" value="Optional: Add tags, review, rating, mood, music, location" style="rounded=0;whiteSpace=wrap;html=1;fillColor=#dae8fc;strokeColor=#6c8ebf;" vertex="1" parent="1">
          <mxGeometry x="320" y="440" width="120" height="60" as="geometry" />
        </mxCell>
        <mxCell id="BSza7AXmkYihMMKh2WeY-9" style="edgeStyle=orthogonalEdgeStyle;rounded=0;orthogonalLoop=1;jettySize=auto;html=1;entryX=0.5;entryY=0;entryDx=0;entryDy=0;" edge="1" parent="1" source="BSza7AXmkYihMMKh2WeY-7" target="BSza7AXmkYihMMKh2WeY-6">
          <mxGeometry relative="1" as="geometry" />
        </mxCell>
        <mxCell id="BSza7AXmkYihMMKh2WeY-7" value="Adds to shelf with status (Read, Currently Reading, etc.)" style="rounded=0;whiteSpace=wrap;html=1;fillColor=#dae8fc;strokeColor=#6c8ebf;" vertex="1" parent="1">
          <mxGeometry x="320" y="340" width="120" height="60" as="geometry" />
        </mxCell>
        <mxCell id="BSza7AXmkYihMMKh2WeY-10" value="Book appears on their profile + status update" style="rounded=0;whiteSpace=wrap;html=1;fillColor=#f5f5f5;fontColor=#333333;strokeColor=#666666;" vertex="1" parent="1">
          <mxGeometry x="320" y="540" width="120" height="60" as="geometry" />
        </mxCell>
        <mxCell id="BSza7AXmkYihMMKh2WeY-12" value="&lt;b&gt;YES&lt;/b&gt;" style="text;html=1;align=center;verticalAlign=middle;whiteSpace=wrap;rounded=0;" vertex="1" parent="1">
          <mxGeometry x="310" width="70" height="30" as="geometry" />
        </mxCell>
        <mxCell id="BSza7AXmkYihMMKh2WeY-15" style="edgeStyle=orthogonalEdgeStyle;rounded=0;orthogonalLoop=1;jettySize=auto;html=1;entryX=0.5;entryY=0;entryDx=0;entryDy=0;" edge="1" parent="1" source="BSza7AXmkYihMMKh2WeY-14" target="BSza7AXmkYihMMKh2WeY-1">
          <mxGeometry relative="1" as="geometry" />
        </mxCell>
        <mxCell id="BSza7AXmkYihMMKh2WeY-17" style="edgeStyle=orthogonalEdgeStyle;rounded=0;orthogonalLoop=1;jettySize=auto;html=1;entryX=0;entryY=0.5;entryDx=0;entryDy=0;" edge="1" parent="1" source="BSza7AXmkYihMMKh2WeY-14" target="BSza7AXmkYihMMKh2WeY-16">
          <mxGeometry relative="1" as="geometry" />
        </mxCell>
        <mxCell id="BSza7AXmkYihMMKh2WeY-14" value="Existing User Account?" style="rounded=1;whiteSpace=wrap;html=1;fillColor=#ffe6cc;strokeColor=#d79b00;" vertex="1" parent="1">
          <mxGeometry x="320" y="-60" width="120" height="60" as="geometry" />
        </mxCell>
        <mxCell id="BSza7AXmkYihMMKh2WeY-19" style="edgeStyle=orthogonalEdgeStyle;rounded=0;orthogonalLoop=1;jettySize=auto;html=1;entryX=1;entryY=0.5;entryDx=0;entryDy=0;" edge="1" parent="1" source="BSza7AXmkYihMMKh2WeY-16" target="BSza7AXmkYihMMKh2WeY-1">
          <mxGeometry relative="1" as="geometry">
            <Array as="points">
              <mxPoint x="540" y="70" />
            </Array>
          </mxGeometry>
        </mxCell>
        <mxCell id="BSza7AXmkYihMMKh2WeY-16" value="User registers an account" style="rounded=0;whiteSpace=wrap;html=1;fillColor=#f5f5f5;fontColor=#333333;strokeColor=#666666;" vertex="1" parent="1">
          <mxGeometry x="480" y="-60" width="120" height="60" as="geometry" />
        </mxCell>
        <mxCell id="BSza7AXmkYihMMKh2WeY-18" value="&lt;b&gt;NO&lt;/b&gt;" style="text;html=1;align=center;verticalAlign=middle;whiteSpace=wrap;rounded=0;" vertex="1" parent="1">
          <mxGeometry x="430" y="-60" width="60" height="30" as="geometry" />
        </mxCell>
      </root>
    </mxGraphModel>
  </diagram>
</mxfile>
